<svg xmlns="http://www.w3.org/2000/svg" width="48" height="48" id="webpage"><g transform="translate(-619.5 -34.5)"><path fill="none" stroke="#000" stroke-linecap="round" stroke-linejoin="round" stroke-width="1.033" d="M620.016 38.016h30.967v24.967h-30.967z"></path><path fill="none" stroke="#000" d="M620.5 42h30.781"></path><circle cx="648" cy="40" r=".5"></circle><circle cx="646" cy="40.02" r=".5"></circle><circle cx="644" cy="40" r=".5"></circle></g><path fill="#4bbfeb" d="M2 9h28v2H2z"></path><path fill="#cad1d8" d="M2 23h6v4H2zM9 23h6v4H9zM16 23h6v4h-6zM23 23h7v4h-7z"></path><path fill="#4bbfeb" d="M2 12h4v10H2zM26 12h4v10h-4z"></path><path fill="#2b4255" d="M7 12h18v10H7z"></path></svg>